<?xml version="1.0" standalone="no"?>
<!DOCTYPE svg PUBLIC "-//W3C//DTD SVG 20010904//EN"
 "http://www.w3.org/TR/2001/REC-SVG-20010904/DTD/svg10.dtd">
<svg version="1.0" xmlns="http://www.w3.org/2000/svg"
 width="512.000000pt" height="512.000000pt" viewBox="0 0 512.000000 512.000000"
 preserveAspectRatio="xMidYMid meet">
<metadata>
Created by potrace 1.14, written by Peter Selinger 2001-2017
</metadata>
<g transform="translate(0.000000,512.000000) scale(0.100000,-0.100000)"
fill="#000000" stroke="none">
<path d="M2340 4524 c-332 -41 -649 -168 -888 -357 -104 -82 -343 -324 -418
-422 -166 -219 -281 -466 -334 -717 -28 -133 -46 -354 -30 -373 15 -18 84 -20
97 -2 6 6 13 64 16 128 15 291 118 594 291 854 214 320 585 587 987 708 186
57 289 71 499 71 210 0 313 -14 499 -71 402 -121 773 -388 987 -708 173 -260
276 -563 291 -854 3 -64 10 -122 16 -128 13 -18 82 -16 97 2 16 19 -2 240 -30
373 -53 251 -168 498 -334 717 -75 98 -314 340 -418 422 -206 163 -460 277
-743 334 -90 18 -150 22 -330 24 -121 2 -236 1 -255 -1z"/>
<path d="M676 2458 c-19 -27 -21 -62 -3 -76 6 -5 45 -12 85 -14 68 -5 79 -9
175 -68 234 -144 262 -160 316 -181 75 -28 173 -28 236 0 26 11 81 45 124 74
42 29 135 81 208 116 109 52 138 62 165 57 51 -9 257 -117 318 -165 104 -83
209 -116 317 -99 78 12 301 108 376 162 153 109 233 125 347 69 36 -18 88 -52
115 -76 36 -31 83 -57 165 -90 147 -58 186 -68 274 -69 86 -1 129 16 253 100
113 77 197 121 245 128 41 7 68 34 68 69 0 58 -65 60 -166 4 -41 -22 -87 -51
-102 -63 -57 -47 -192 -137 -226 -151 -84 -35 -149 -13 -336 112 -236 158
-311 190 -426 180 -82 -6 -157 -42 -348 -164 -211 -136 -281 -162 -353 -131
-40 17 -210 135 -265 183 -25 23 -77 57 -115 76 -61 31 -76 34 -153 34 -74 0
-93 -4 -150 -31 -36 -17 -90 -51 -120 -75 -93 -75 -227 -169 -264 -184 -19 -8
-51 -15 -69 -15 -47 0 -159 59 -230 119 -78 68 -214 157 -267 176 -23 8 -73
15 -111 15 -59 0 -70 -3 -83 -22z"/>
<path d="M755 1940 c-17 -19 -17 -21 6 -54 16 -24 34 -37 58 -41 48 -9 107
-40 161 -84 74 -61 135 -99 227 -144 78 -37 95 -42 163 -42 88 0 132 20 269
118 107 77 235 143 294 152 87 13 231 -49 349 -151 29 -26 87 -63 128 -83 66
-32 84 -36 150 -36 92 1 153 24 295 115 223 142 315 175 431 152 74 -15 148
-50 201 -94 57 -48 190 -125 256 -148 30 -11 83 -22 119 -26 96 -10 154 11
284 102 60 42 123 83 140 90 19 8 36 26 44 45 13 29 12 33 -9 50 -13 11 -32
19 -42 19 -24 0 -87 -40 -95 -60 -3 -8 -59 -41 -124 -74 -112 -55 -122 -58
-177 -54 -46 3 -87 17 -184 63 -68 33 -155 79 -192 103 -126 81 -171 97 -272
97 -81 0 -97 -3 -160 -33 -38 -18 -97 -50 -130 -72 -92 -59 -312 -153 -370
-158 -47 -4 -61 1 -175 59 -69 34 -145 80 -169 101 -112 97 -254 132 -373 90
-56 -20 -131 -65 -178 -108 -14 -12 -79 -50 -145 -83 -155 -79 -176 -80 -312
-11 -55 27 -131 74 -169 105 -133 106 -254 145 -299 95z"/>
<path d="M1858 1466 c-51 -18 -116 -58 -174 -106 -112 -94 -216 -140 -334
-149 l-85 -6 0 -50 0 -50 95 0 c107 1 130 10 255 96 96 67 310 169 353 169 44
0 255 -105 326 -161 109 -89 238 -126 343 -100 52 13 164 68 228 110 22 15 96
54 165 87 116 54 130 59 195 59 65 0 78 -4 170 -52 55 -28 137 -74 183 -101
98 -60 225 -114 255 -110 15 2 23 11 25 30 5 41 -13 65 -65 84 -27 10 -108 55
-181 101 -217 136 -262 156 -362 161 -106 5 -153 -11 -300 -103 -201 -125
-331 -175 -424 -161 -64 10 -188 75 -271 142 -38 32 -101 72 -140 91 -60 29
-79 33 -145 33 -41 -1 -91 -7 -112 -14z"/>
<path d="M1830 966 c-8 -8 -42 -25 -75 -38 -53 -21 -60 -28 -67 -58 -6 -29 -3
-39 17 -59 22 -23 26 -23 42 -10 24 20 116 59 141 59 10 0 27 9 37 20 40 44
107 18 269 -105 43 -33 104 -79 135 -102 84 -63 153 -86 248 -81 100 4 160 32
351 162 176 118 210 136 276 143 54 6 100 -11 169 -59 58 -41 121 5 101 73
-13 46 -62 61 -204 63 -175 2 -257 -25 -431 -139 -195 -128 -264 -151 -341
-117 -43 19 -150 91 -234 159 -86 69 -201 103 -349 103 -48 0 -75 -5 -85 -14z"/>
</g>
</svg>
