<svg xmlns="http://www.w3.org/2000/svg" clip-rule="evenodd" fill-rule="evenodd" image-rendering="optimizeQuality" shape-rendering="geometricPrecision" text-rendering="geometricPrecision" viewBox="0 0 96 100" style="fill: rgb(255, 255, 255);" original_string_length="2054"><g><path d="M96 47c0,1 -1,1 -1,1 -1,0 -2,0 -2,-1l0 0c0,-12 -5,-23 -13,-31 -9,-8 -20,-13 -32,-13 -12,0 -23,5 -32,13 -8,8 -13,19 -13,31l0 0c0,1 -1,1 -2,1 0,0 -1,0 -1,-1l0 0c0,-13 6,-25 15,-33 8,-9 20,-14 33,-14 13,0 25,5 33,14 9,8 15,20 15,33l0 0zm-94 8c-1,0 -2,0 -2,-1 0,-1 0,-1 1,-2 1,0 1,0 2,0 3,0 5,2 8,4 2,2 5,4 7,4 2,0 4,-2 7,-4 2,-2 5,-4 8,-4 3,0 6,2 8,4 3,2 5,4 7,4 2,0 5,-2 8,-4 3,-2 6,-4 9,-4 3,0 6,2 9,4 3,2 5,4 8,4 2,0 4,-2 7,-4 1,-1 3,-2 5,-3 1,0 2,0 2,1 0,1 0,1 -1,2 -2,0 -3,1 -5,2 -3,2 -5,4 -8,4 -4,0 -7,-2 -10,-3 -2,-2 -5,-4 -7,-4 -3,0 -5,2 -8,4 -3,1 -6,3 -9,3 -3,0 -6,-2 -8,-4 -3,-1 -5,-3 -7,-3 -2,0 -4,2 -7,3 -3,2 -5,4 -8,4 -3,0 -6,-2 -9,-4 -2,-1 -4,-3 -6,-3 -1,0 -1,0 -1,0l0 0zm26 39c-1,1 -1,1 -2,0 0,-1 0,-1 0,-2 2,-1 3,-1 4,-2 1,0 2,0 3,0 3,0 6,1 8,3 3,2 5,4 7,4 2,0 5,-2 8,-4 3,-2 6,-3 9,-3 2,0 4,0 6,1 0,1 1,2 0,2 0,1 -1,1 -2,1 -1,-1 -3,-2 -4,-2 -3,0 -5,2 -8,4 -3,2 -6,4 -9,4 -3,0 -6,-2 -8,-4 -3,-2 -5,-4 -7,-4 -1,0 -1,1 -2,1 -1,0 -2,1 -3,1l0 0zm-12 -7c-1,0 -1,-1 -1,-2 0,-1 1,-1 1,-1 1,0 1,0 1,0 0,0 0,0 1,0 2,0 4,-1 7,-3 2,-2 5,-4 8,-4 3,0 6,2 8,4 3,2 5,3 7,3 2,0 5,-1 8,-3 3,-2 6,-4 9,-4 3,0 6,2 9,4 2,1 4,3 6,3 1,0 1,1 1,2 0,1 -1,1 -1,1 -3,-1 -5,-2 -8,-4 -2,-1 -5,-3 -7,-3 -3,0 -5,2 -8,3 -3,2 -6,4 -9,4 -3,0 -6,-2 -8,-4 -3,-1 -5,-3 -7,-3 -2,0 -4,2 -7,3 -3,2 -5,4 -8,4 -1,0 -1,0 -1,0 -1,0 -1,0 -1,0l0 0zm-13 -19c0,-1 -1,-1 -1,-2 1,-1 1,-1 2,-1 2,0 5,2 7,4 2,1 5,3 7,3 2,0 4,-2 7,-3 2,-2 5,-4 8,-4 3,0 6,2 8,4 3,1 5,3 7,3 2,0 5,-2 8,-3 3,-2 6,-4 9,-4 3,0 6,2 9,4 3,1 5,3 8,3 2,0 4,-2 7,-3 0,-1 1,-1 2,-2 0,0 1,0 2,1 0,0 0,1 -1,2 0,0 -1,0 -2,1 -3,2 -5,4 -8,4 -4,0 -7,-2 -10,-4 -2,-2 -5,-3 -7,-3 -3,0 -5,1 -8,3 -3,2 -6,4 -9,4 -3,0 -6,-2 -8,-4 -3,-2 -5,-3 -7,-3 -2,0 -4,1 -7,3 -3,2 -5,4 -8,4 -3,0 -6,-2 -9,-4 -2,-2 -4,-3 -6,-3l0 0z" fill-rule="nonzero" style="fill: inherit;"/></g></svg>